<?xml version="1.0" encoding="UTF-8" standalone="no"?>
<!-- Created with Inkscape (http://www.inkscape.org/) -->

<svg
   xmlns:dc="http://purl.org/dc/elements/1.1/"
   xmlns:cc="http://creativecommons.org/ns#"
   xmlns:rdf="http://www.w3.org/1999/02/22-rdf-syntax-ns#"
   xmlns:svg="http://www.w3.org/2000/svg"
   xmlns="http://www.w3.org/2000/svg"
   xmlns:sodipodi="http://sodipodi.sourceforge.net/DTD/sodipodi-0.dtd"
   xmlns:inkscape="http://www.inkscape.org/namespaces/inkscape"
   id="svg3020"
   version="1.1"
   inkscape:version="0.48.4 r9939"
   width="76.25"
   height="77.5"
   xml:space="preserve"
   sodipodi:docname="maze2.svg"><metadata
     id="metadata3026"><rdf:RDF><cc:Work
         rdf:about=""><dc:format>image/svg+xml</dc:format><dc:type
           rdf:resource="http://purl.org/dc/dcmitype/StillImage" /><dc:title></dc:title></cc:Work></rdf:RDF></metadata><defs
     id="defs3024"><marker
       inkscape:stockid="SquareS"
       orient="auto"
       refY="0.0"
       refX="0.0"
       id="SquareS"
       style="overflow:visible"><path
         id="path3902"
         d="M -5.0,-5.0 L -5.0,5.0 L 5.0,5.0 L 5.0,-5.0 L -5.0,-5.0 z "
         style="fill-rule:evenodd;stroke:#000000;stroke-width:1.0pt"
         transform="scale(0.2)" /></marker><marker
       inkscape:stockid="DotS"
       orient="auto"
       refY="0.0"
       refX="0.0"
       id="DotS"
       style="overflow:visible"><path
         id="path3893"
         d="M -2.5,-1.0 C -2.5,1.7600000 -4.7400000,4.0 -7.5,4.0 C -10.260000,4.0 -12.5,1.7600000 -12.5,-1.0 C -12.5,-3.7600000 -10.260000,-6.0 -7.5,-6.0 C -4.7400000,-6.0 -2.5,-3.7600000 -2.5,-1.0 z "
         style="fill-rule:evenodd;stroke:#000000;stroke-width:1.0pt"
         transform="scale(0.2) translate(7.4, 1)" /></marker></defs><sodipodi:namedview
     pagecolor="#ffffff"
     bordercolor="#666666"
     borderopacity="1"
     objecttolerance="10"
     gridtolerance="10"
     guidetolerance="10"
     inkscape:pageopacity="0"
     inkscape:pageshadow="2"
     inkscape:window-width="1920"
     inkscape:window-height="1030"
     id="namedview3022"
     showgrid="false"
     inkscape:zoom="10.993548"
     inkscape:cx="22.934272"
     inkscape:cy="38.75"
     inkscape:window-x="0"
     inkscape:window-y="0"
     inkscape:window-maximized="1"
     inkscape:current-layer="g3028" /><g
     id="g3028"
     inkscape:groupmode="layer"
     inkscape:label="ink_ext_XXXXXX"
     transform="matrix(1.25,0,0,-1.25,0,77.5)"><g
       id="g3030"
       transform="scale(0.1,0.1)"><path
         d="M 3.91016,610.051 5.94141,14.0781 605.98,14.0781 601.91,608.059 3.91016,610.051 z"
         style="fill:none;stroke:#000000;stroke-opacity:1;stroke-width:8;stroke-linecap:butt;stroke-linejoin:miter;stroke-miterlimit:4;stroke-dasharray:none"
         id="path3032" /><path
         d="m 60.5117,53.4883 c 0,-7.2578 -5.9023,-13.1602 -13.1719,-13.1602 -7.2187,0 -13.121,5.9024 -13.121,13.1602 0,7.2305 5.9023,13.1328 13.121,13.1328 7.2696,0 13.1719,-5.9023 13.1719,-13.1328 z"
         style="fill:#ff0000;fill-opacity:1;fill-rule:evenodd;stroke:none"
         id="path3034" /><path
         d="m 60.5117,53.4883 c 0,-7.2578 -5.9023,-13.1602 -13.1719,-13.1602 -7.2187,0 -13.121,5.9024 -13.121,13.1602 0,7.2305 5.9023,13.1328 13.121,13.1328 7.2696,0 13.1719,-5.9023 13.1719,-13.1328 z"
         style="fill:none;stroke:#000000;stroke-opacity:1;stroke-width:8;stroke-linecap:butt;stroke-linejoin:miter;stroke-miterlimit:4;stroke-dasharray:none"
         id="path3036" /><path
         d="m 66.5586,541.379 -11.9883,5.711 -11.7617,-6.059 1.7227,13.129 -9.4102,9.328 13.0391,2.422 5.9804,11.84 6.3282,-11.641 13.082,-2.031 -9.1016,-9.609 2.1094,-13.09 z"
         style="fill:#ffff00;fill-opacity:1;fill-rule:evenodd;stroke:none"
         id="path3038" /><path
         d="m 66.5586,541.379 -11.9883,5.711 -11.7617,-6.059 1.7227,13.129 -9.4102,9.328 13.0391,2.422 5.9804,11.84 6.3282,-11.641 13.082,-2.031 -9.1016,-9.609 2.1094,-13.09 z"
         style="fill:none;stroke:#000000;stroke-opacity:1;stroke-width:8;stroke-linecap:butt;stroke-linejoin:miter;stroke-miterlimit:4;stroke-dasharray:none"
         id="path3040" /><path
         d="M 5.94141,436.301 272.621,434.309 502.93,537.32"
         style="fill:none;stroke:#000000;stroke-opacity:1;stroke-width:8;stroke-linecap:butt;stroke-linejoin:miter;stroke-miterlimit:4;stroke-dasharray:none"
         id="path3042" /><path
         d="M 181.719,434.309 179.691,133.301"
         style="fill:none;stroke:#000000;stroke-opacity:1;stroke-width:8;stroke-linecap:butt;stroke-linejoin:miter;stroke-miterlimit:4;stroke-dasharray:none"
         id="path3044" /><path
         d="m 218.09,16.1094 58.59,96.9496"
         style="fill:none;stroke:#000000;stroke-opacity:1;stroke-width:8;stroke-linecap:butt;stroke-linejoin:miter;stroke-miterlimit:4;stroke-dasharray:none"
         id="path3046" /><path
         d="M 175.66,248.449 438.281,109.039"
         style="fill:none;stroke:#000000;stroke-opacity:1;stroke-width:8;stroke-linecap:butt;stroke-linejoin:miter;stroke-miterlimit:4;stroke-dasharray:none"
         id="path3048" /><path
         d="M 262.539,335.328 601.91,159.551"
         style="fill:none;stroke:#000000;stroke-opacity:1;stroke-width:8;stroke-linecap:butt;stroke-linejoin:miter;stroke-miterlimit:4;stroke-dasharray:none"
         id="path3050" /></g><path
       style="fill:none;stroke:#000000;stroke-width:0.80000001;stroke-linecap:butt;stroke-linejoin:miter;stroke-miterlimit:4;stroke-opacity:1;stroke-dasharray:1.6, 0.8;stroke-dashoffset:0;marker-end:url(#SquareS)"
       d="m 4.5845071,7.422535 c 0.683195,3.220379 2.0201973,5.744886 1.0187792,9.969484 -1.2705985,1.6499 -1.2864592,3.623109 -1.382629,5.603286 1.1665474,2.609182 2.6807787,5.119612 2.6197183,8.077465 -0.064327,1.204604 -0.8637695,2.703254 -1.8920188,4.293427 -0.4885184,2.467221 0.2340456,4.530749 0.8732395,6.622066"
       id="path3052"
       inkscape:connector-curvature="0"
       sodipodi:nodetypes="cccccc" /><path
       style="fill:none;stroke:#000000;stroke-width:1;stroke-linecap:butt;stroke-linejoin:miter;stroke-miterlimit:4;stroke-opacity:1;stroke-dasharray:2,1;stroke-dashoffset:0;marker-end:url(#SquareS)"
       d="m 8.1866197,69.222418 4.3661973,-2.819836 c 5.290281,-0.58211 1.447312,5.514665 4.548122,7.186033 2.963886,-0.112155 5.522842,-0.710227 7.276995,-2.274061 1.28108,-2.042802 2.443944,-4.381144 4.184273,-5.275822 3.596345,-1.477131 2.727786,-3.140746 3.638497,-4.730047 l 3.638498,-0.909624 c 3.03301,-1.888631 3.816698,-0.965611 5.002934,-0.545775 l 4.275235,0.36385 c 1.96872,1.12187 3.624677,2.24374 3.911385,3.36561 l 2.365023,4.82101 c 1.218781,0.862925 1.931886,2.015137 3.72946,2.546948 2.152778,1.168527 4.305556,1.830138 6.458334,1.546362 l 4.821009,-0.909625 5.184859,-1.910211"
       id="path4471"
       inkscape:connector-curvature="0"
       transform="matrix(0.8,0,0,-0.8,0,62)"
       sodipodi:nodetypes="ccccccccccccccc" /><path
       style="fill:none;stroke:#000000;stroke-width:1;stroke-linecap:butt;stroke-linejoin:miter;stroke-opacity:1;stroke-miterlimit:4;stroke-dasharray:2, 1;stroke-dashoffset:0;marker-end:url(#SquareS)"
       d="m 7.1860329,68.039906 3.3656101,-4.730047 4.730047,-2.728873 4.002348,-1.910211 1.455399,-5.457747 -1.455399,-9.096244 0.272887,-8.641432 1.273474,-4.821009 -2.546948,-5.093897"
       id="path4676"
       inkscape:connector-curvature="0"
       transform="matrix(0.8,0,0,-0.8,0,62)" /></g></svg>