<?xml version="1.0" encoding="UTF-8" standalone="no"?>
<!-- Created with Inkscape (http://www.inkscape.org/) -->

<svg
   xmlns:dc="http://purl.org/dc/elements/1.1/"
   xmlns:cc="http://creativecommons.org/ns#"
   xmlns:rdf="http://www.w3.org/1999/02/22-rdf-syntax-ns#"
   xmlns:svg="http://www.w3.org/2000/svg"
   xmlns="http://www.w3.org/2000/svg"
   xmlns:sodipodi="http://sodipodi.sourceforge.net/DTD/sodipodi-0.dtd"
   xmlns:inkscape="http://www.inkscape.org/namespaces/inkscape"
   id="svg3173"
   version="1.1"
   inkscape:version="0.48.4 r9939"
   width="76.25"
   height="77.5"
   xml:space="preserve"
   sodipodi:docname="mazeEasy.eps"><metadata
     id="metadata3179"><rdf:RDF><cc:Work
         rdf:about=""><dc:format>image/svg+xml</dc:format><dc:type
           rdf:resource="http://purl.org/dc/dcmitype/StillImage" /><dc:title></dc:title></cc:Work></rdf:RDF></metadata><defs
     id="defs3177"><marker
       inkscape:stockid="SquareS"
       orient="auto"
       refY="0.0"
       refX="0.0"
       id="SquareS"
       style="overflow:visible"><path
         id="path4045"
         d="M -5.0,-5.0 L -5.0,5.0 L 5.0,5.0 L 5.0,-5.0 L -5.0,-5.0 z "
         style="fill-rule:evenodd;stroke:#000000;stroke-width:1.0pt"
         transform="scale(0.2)" /></marker></defs><sodipodi:namedview
     pagecolor="#ffffff"
     bordercolor="#666666"
     borderopacity="1"
     objecttolerance="10"
     gridtolerance="10"
     guidetolerance="10"
     inkscape:pageopacity="0"
     inkscape:pageshadow="2"
     inkscape:window-width="1920"
     inkscape:window-height="1030"
     id="namedview3175"
     showgrid="false"
     inkscape:zoom="8.6130168"
     inkscape:cx="11.621783"
     inkscape:cy="44.142749"
     inkscape:window-x="0"
     inkscape:window-y="0"
     inkscape:window-maximized="1"
     inkscape:current-layer="g3181" /><g
     id="g3181"
     inkscape:groupmode="layer"
     inkscape:label="ink_ext_XXXXXX"
     transform="matrix(1.25,0,0,-1.25,0,77.5)"><g
       id="g3183"
       transform="scale(0.1,0.1)"><path
         d="M 3.91016,610.051 5.94141,14.0781 605.98,14.0781 601.91,608.059 3.91016,610.051 z"
         style="fill:none;stroke:#000000;stroke-opacity:1;stroke-width:8;stroke-linecap:butt;stroke-linejoin:miter;stroke-miterlimit:4;stroke-dasharray:none"
         id="path3185" /><path
         d="m 60.5117,53.4883 c 0,-7.2578 -5.9023,-13.1602 -13.1719,-13.1602 -7.2187,0 -13.121,5.9024 -13.121,13.1602 0,7.2305 5.9023,13.1328 13.121,13.1328 7.2696,0 13.1719,-5.9023 13.1719,-13.1328 z"
         style="fill:#ff0000;fill-opacity:1;fill-rule:evenodd;stroke:none"
         id="path3187" /><path
         d="m 60.5117,53.4883 c 0,-7.2578 -5.9023,-13.1602 -13.1719,-13.1602 -7.2187,0 -13.121,5.9024 -13.121,13.1602 0,7.2305 5.9023,13.1328 13.121,13.1328 7.2696,0 13.1719,-5.9023 13.1719,-13.1328 z"
         style="fill:none;stroke:#000000;stroke-opacity:1;stroke-width:8;stroke-linecap:butt;stroke-linejoin:miter;stroke-miterlimit:4;stroke-dasharray:none"
         id="path3189" /><path
         d="m 553.441,537.32 -11.961,5.7 -11.789,-6.051 1.719,13.16 -9.379,9.34 13.008,2.422 5.981,11.8 6.32,-11.601 13.09,-2.039 -9.102,-9.641 2.113,-13.09 z"
         style="fill:#ffff00;fill-opacity:1;fill-rule:evenodd;stroke:none"
         id="path3191" /><path
         d="m 553.441,537.32 -11.961,5.7 -11.789,-6.051 1.719,13.16 -9.379,9.34 13.008,2.422 5.981,11.8 6.32,-11.601 13.09,-2.039 -9.102,-9.641 2.113,-13.09 z"
         style="fill:none;stroke:#000000;stroke-opacity:1;stroke-width:8;stroke-linecap:butt;stroke-linejoin:miter;stroke-miterlimit:4;stroke-dasharray:none"
         id="path3193" /></g><path
       style="fill:none;stroke:#000000;stroke-width:1;stroke-linecap:butt;stroke-linejoin:miter;stroke-opacity:1;stroke-miterlimit:4;stroke-dasharray:2, 1;stroke-dashoffset:0;marker-end:url(#SquareS)"
       d="M 5.6890636,67.74732 2.5542734,51.260646"
       id="path3195"
       inkscape:connector-curvature="0"
       transform="matrix(0.8,0,0,-0.8,0,62)" /></g></svg>